<?xml version="1.0" encoding="UTF-8" standalone="no"?>
<!-- Created with Inkscape (http://www.inkscape.org/) -->

<svg
   version="1.1"
   id="svg1"
   width="513.33331"
   height="374.66666"
   viewBox="0 0 513.33331 374.66666"
   sodipodi:docname="konfig_en.svg"
   inkscape:version="1.4.2 (ebf0e94, 2025-05-08)"
   xmlns:inkscape="http://www.inkscape.org/namespaces/inkscape"
   xmlns:sodipodi="http://sodipodi.sourceforge.net/DTD/sodipodi-0.dtd"
   xmlns="http://www.w3.org/2000/svg"
   xmlns:svg="http://www.w3.org/2000/svg">
  <defs
     id="defs1" />
  <sodipodi:namedview
     id="namedview1"
     pagecolor="#ffffff"
     bordercolor="#666666"
     borderopacity="1.0"
     inkscape:showpageshadow="2"
     inkscape:pageopacity="0.0"
     inkscape:pagecheckerboard="0"
     inkscape:deskcolor="#d1d1d1"
     inkscape:zoom="1.186011"
     inkscape:cx="176.22096"
     inkscape:cy="302.27376"
     inkscape:window-width="1920"
     inkscape:window-height="1163"
     inkscape:window-x="0"
     inkscape:window-y="0"
     inkscape:window-maximized="1"
     inkscape:current-layer="g1">
    <inkscape:page
       x="0"
       y="0"
       id="page1"
       width="513.33331"
       height="374.66666"
       margin="0"
       bleed="0" />
  </sodipodi:namedview>
  <g
     id="g1"
     inkscape:groupmode="layer"
     inkscape:label="">
    <path
       id="path1"
       d="m 316.203,-24.008 h 70.431"
       style="fill:none;stroke:#1f1917;stroke-width:1.00802;stroke-linecap:butt;stroke-linejoin:miter;stroke-miterlimit:10;stroke-dasharray:none;stroke-opacity:1"
       transform="scale(1.327188,-1.3333333)" />
    <path
       id="path2"
       d="m 316.203,-96.578 h 70.431"
       style="fill:none;stroke:#1f1917;stroke-width:1.00802;stroke-linecap:butt;stroke-linejoin:miter;stroke-miterlimit:10;stroke-dasharray:none;stroke-opacity:1"
       transform="scale(1.327188,-1.3333333)" />
    <path
       id="path3"
       d="m 316.203,-169.148 h 70.431"
       style="fill:none;stroke:#1f1917;stroke-width:1.00802;stroke-linecap:butt;stroke-linejoin:miter;stroke-miterlimit:10;stroke-dasharray:none;stroke-opacity:1"
       transform="scale(1.327188,-1.3333333)" />
    <path
       id="path4"
       d="m 316.203,-241.719 h 70.431"
       style="fill:none;stroke:#1f1917;stroke-width:1.00802;stroke-linecap:butt;stroke-linejoin:miter;stroke-miterlimit:10;stroke-dasharray:none;stroke-opacity:1"
       transform="scale(1.327188,-1.3333333)" />
    <path
       id="path5"
       d="M 0.259,-16.125 H 16.6 V -31.332 H 0.259 Z"
       style="fill:#c2c2c2;fill-opacity:1;fill-rule:evenodd;stroke:#1f1917;stroke-width:0.217711;stroke-linecap:butt;stroke-linejoin:miter;stroke-miterlimit:10;stroke-dasharray:none;stroke-opacity:1"
       transform="scale(1.327188,-1.3333333)" />
    <path
       id="path6"
       d="M 16.6,-16.125 H 136.045 V -31.332 H 16.6 Z"
       style="fill:#c2c2c2;fill-opacity:1;fill-rule:evenodd;stroke:#1f1917;stroke-width:0.217711;stroke-linecap:butt;stroke-linejoin:miter;stroke-miterlimit:10;stroke-dasharray:none;stroke-opacity:1"
       transform="scale(1.327188,-1.3333333)" />
    <path
       id="path7"
       d="m 136.045,-16.125 h 29.86 v -15.207 h -29.86 z"
       style="fill:#c2c2c2;fill-opacity:1;fill-rule:evenodd;stroke:#1f1917;stroke-width:0.217711;stroke-linecap:butt;stroke-linejoin:miter;stroke-miterlimit:10;stroke-dasharray:none;stroke-opacity:1"
       transform="scale(1.327188,-1.3333333)" />
    <path
       id="path8"
       d="M 165.858,-16.125 H 286.81 V -31.332 H 165.858 Z"
       style="fill:#c2c2c2;fill-opacity:1;fill-rule:evenodd;stroke:#1f1917;stroke-width:0.217711;stroke-linecap:butt;stroke-linejoin:miter;stroke-miterlimit:10;stroke-dasharray:none;stroke-opacity:1"
       transform="scale(1.327188,-1.3333333)" />
    <path
       id="path9"
       d="m 286.9,-16.125 h 44.765 V -31.332 H 286.9 Z"
       style="fill:#c2c2c2;fill-opacity:1;fill-rule:evenodd;stroke:#1f1917;stroke-width:0.217711;stroke-linecap:butt;stroke-linejoin:miter;stroke-miterlimit:10;stroke-dasharray:none;stroke-opacity:1"
       transform="scale(1.327188,-1.3333333)" />
    <path
       id="path10"
       d="M 0.259,-88.695 H 16.6 v -15.211 H 0.259 Z"
       style="fill:#c2c2c2;fill-opacity:1;fill-rule:evenodd;stroke:#1f1917;stroke-width:0.217711;stroke-linecap:butt;stroke-linejoin:miter;stroke-miterlimit:10;stroke-dasharray:none;stroke-opacity:1"
       transform="scale(1.327188,-1.3333333)" />
    <path
       id="path11"
       d="m 16.6,-88.695 h 119.445 v -15.211 H 16.6 Z"
       style="fill:#c2c2c2;fill-opacity:1;fill-rule:evenodd;stroke:#1f1917;stroke-width:0.217711;stroke-linecap:butt;stroke-linejoin:miter;stroke-miterlimit:10;stroke-dasharray:none;stroke-opacity:1"
       transform="scale(1.327188,-1.3333333)" />
    <path
       id="path12"
       d="m 136.045,-88.695 h 29.86 v -15.211 h -29.86 z"
       style="fill:#c2c2c2;fill-opacity:1;fill-rule:evenodd;stroke:#1f1917;stroke-width:0.217711;stroke-linecap:butt;stroke-linejoin:miter;stroke-miterlimit:10;stroke-dasharray:none;stroke-opacity:1"
       transform="scale(1.327188,-1.3333333)" />
    <path
       id="path13"
       d="M 165.858,-88.695 H 286.81 v -15.211 H 165.858 Z"
       style="fill:#c2c2c2;fill-opacity:1;fill-rule:evenodd;stroke:#1f1917;stroke-width:0.217711;stroke-linecap:butt;stroke-linejoin:miter;stroke-miterlimit:10;stroke-dasharray:none;stroke-opacity:1"
       transform="scale(1.327188,-1.3333333)" />
    <path
       id="path14"
       d="m 286.9,-88.695 h 44.765 v -15.211 H 286.9 Z"
       style="fill:#c2c2c2;fill-opacity:1;fill-rule:evenodd;stroke:#1f1917;stroke-width:0.217711;stroke-linecap:butt;stroke-linejoin:miter;stroke-miterlimit:10;stroke-dasharray:none;stroke-opacity:1"
       transform="scale(1.327188,-1.3333333)" />
    <path
       id="path15"
       d="M 0.259,-161.262 H 16.6 v -15.215 H 0.259 Z"
       style="fill:#c2c2c2;fill-opacity:1;fill-rule:evenodd;stroke:#1f1917;stroke-width:0.217711;stroke-linecap:butt;stroke-linejoin:miter;stroke-miterlimit:10;stroke-dasharray:none;stroke-opacity:1"
       transform="scale(1.327188,-1.3333333)" />
    <path
       id="path16"
       d="m 16.6,-161.262 h 119.445 v -15.215 H 16.6 Z"
       style="fill:#c2c2c2;fill-opacity:1;fill-rule:evenodd;stroke:#1f1917;stroke-width:0.217711;stroke-linecap:butt;stroke-linejoin:miter;stroke-miterlimit:10;stroke-dasharray:none;stroke-opacity:1"
       transform="scale(1.327188,-1.3333333)" />
    <path
       id="path17"
       d="m 136.045,-161.262 h 29.86 v -15.215 h -29.86 z"
       style="fill:#c2c2c2;fill-opacity:1;fill-rule:evenodd;stroke:#1f1917;stroke-width:0.217711;stroke-linecap:butt;stroke-linejoin:miter;stroke-miterlimit:10;stroke-dasharray:none;stroke-opacity:1"
       transform="scale(1.327188,-1.3333333)" />
    <path
       id="path18"
       d="M 165.858,-161.262 H 286.81 v -15.215 H 165.858 Z"
       style="fill:#c2c2c2;fill-opacity:1;fill-rule:evenodd;stroke:#1f1917;stroke-width:0.217711;stroke-linecap:butt;stroke-linejoin:miter;stroke-miterlimit:10;stroke-dasharray:none;stroke-opacity:1"
       transform="scale(1.327188,-1.3333333)" />
    <path
       id="path19"
       d="m 286.9,-161.262 h 44.765 v -15.215 H 286.9 Z"
       style="fill:#c2c2c2;fill-opacity:1;fill-rule:evenodd;stroke:#1f1917;stroke-width:0.217711;stroke-linecap:butt;stroke-linejoin:miter;stroke-miterlimit:10;stroke-dasharray:none;stroke-opacity:1"
       transform="scale(1.327188,-1.3333333)" />
    <path
       id="path20"
       d="M 0.259,-233.832 H 16.6 v -15.215 H 0.259 Z"
       style="fill:#c2c2c2;fill-opacity:1;fill-rule:evenodd;stroke:#1f1917;stroke-width:0.217711;stroke-linecap:butt;stroke-linejoin:miter;stroke-miterlimit:10;stroke-dasharray:none;stroke-opacity:1"
       transform="scale(1.327188,-1.3333333)" />
    <path
       id="path21"
       d="m 16.6,-233.832 h 119.445 v -15.215 H 16.6 Z"
       style="fill:#c2c2c2;fill-opacity:1;fill-rule:evenodd;stroke:#1f1917;stroke-width:0.217711;stroke-linecap:butt;stroke-linejoin:miter;stroke-miterlimit:10;stroke-dasharray:none;stroke-opacity:1"
       transform="scale(1.327188,-1.3333333)" />
    <path
       id="path22"
       d="m 136.045,-233.832 h 29.86 v -15.215 h -29.86 z"
       style="fill:#c2c2c2;fill-opacity:1;fill-rule:evenodd;stroke:#1f1917;stroke-width:0.217711;stroke-linecap:butt;stroke-linejoin:miter;stroke-miterlimit:10;stroke-dasharray:none;stroke-opacity:1"
       transform="scale(1.327188,-1.3333333)" />
    <path
       id="path23"
       d="M 165.858,-233.832 H 286.81 v -15.215 H 165.858 Z"
       style="fill:#c2c2c2;fill-opacity:1;fill-rule:evenodd;stroke:#1f1917;stroke-width:0.217711;stroke-linecap:butt;stroke-linejoin:miter;stroke-miterlimit:10;stroke-dasharray:none;stroke-opacity:1"
       transform="scale(1.327188,-1.3333333)" />
    <path
       id="path24"
       d="m 286.9,-233.832 h 44.765 v -15.215 H 286.9 Z"
       style="fill:#c2c2c2;fill-opacity:1;fill-rule:evenodd;stroke:#1f1917;stroke-width:0.217711;stroke-linecap:butt;stroke-linejoin:miter;stroke-miterlimit:10;stroke-dasharray:none;stroke-opacity:1"
       transform="scale(1.327188,-1.3333333)" />
    <path
       id="path25"
       d="m 485.08854,4.8508059 c 0.21899,-0.52 0.46319,-0.8746666 0.72332,-1.072 0.26676,-0.1986666 0.63041,-0.308 1.08962,-0.308 0.52026,0 0.96354,0.2026667 1.32719,0.5786667 0.36497,0.38 0.5468,0.8693333 0.5468,1.4839999 0,0.5986667 -0.17652,1.0986667 -0.53618,1.484 -0.34905,0.3853333 -0.74456,0.5786667 -1.17191,0.5786667 -0.32782,0 -0.62511,-0.12 -0.90647,-0.3546667 -0.18183,-0.156 -0.43134,-0.5053333 -0.74986,-1.052 -0.20837,0.4173334 -0.43134,0.704 -0.68218,0.8853333 -0.2442,0.172 -0.55211,0.2613334 -0.90116,0.2613334 -0.46849,0 -0.864,-0.1666667 -1.19181,-0.5 -0.32914,-0.3386667 -0.48973,-0.776 -0.48973,-1.308 0,-0.5573333 0.15129,-0.9893333 0.45257,-1.3173333 0.3026,-0.328 0.65165,-0.4893333 1.05246,-0.4893333 0.28136,0 0.52556,0.066667 0.74455,0.2133333 0.21899,0.1506667 0.44859,0.448 0.69279,0.916 z m 0.4685,0.9946666 c 0.24553,0.5106667 0.48442,0.86 0.71933,1.032 0.24421,0.172 0.50964,0.26 0.80693,0.26 0.40082,0 0.73394,-0.1453333 1.00469,-0.432 0.27074,-0.292 0.40213,-0.6826666 0.40213,-1.172 0,-0.4786666 -0.13537,-0.8853333 -0.42204,-1.1973333 -0.28667,-0.3079999 -0.6052,-0.4693333 -0.95292,-0.4693333 -0.2243,0 -0.42205,0.057333 -0.58927,0.1666667 -0.16723,0.1146667 -0.32782,0.2973333 -0.46319,0.552 -0.0783,0.1506666 -0.24553,0.568 -0.50566,1.2599999 z m -0.61449,-0.6186666 c -0.15661,-0.3653333 -0.33843,-0.636 -0.5468,-0.8026667 -0.20837,-0.172 -0.45788,-0.2546666 -0.76048,-0.2546666 -0.34374,0 -0.63572,0.1186666 -0.864,0.364 -0.23491,0.24 -0.34905,0.5733333 -0.34905,0.9893333 0,0.432 0.11414,0.7813333 0.34374,1.0466666 0.22828,0.2613334 0.48973,0.3853333 0.77508,0.3853333 0.31322,0 0.58396,-0.1346666 0.82286,-0.4106666 0.1513,-0.188 0.34905,-0.6306667 0.57865,-1.3173333 z"
       style="fill:#1f1917;fill-opacity:1;fill-rule:evenodd;stroke:#1f1917;stroke-width:0.289612;stroke-linecap:butt;stroke-linejoin:miter;stroke-miterlimit:10;stroke-dasharray:none;stroke-opacity:1" />
    <path
       id="path26"
       d="m 475.416,5.0961392 h -7.51454 v -0.484 h 7.51454 c -0.45788,-0.5319999 -0.7857,-0.9479999 -0.96753,-1.2506666 -0.19907,-0.292 -0.37559,-0.6506666 -0.54812,-1.0826666 h 0.39152 c 0.38488,0.4626666 0.85869,0.9426666 1.42672,1.4319999 0.56804,0.484 1.0153,0.8173333 1.34843,1.0053333 v 0.2906667 c -0.43134,0.24 -0.91045,0.584 -1.42142,1.0373333 -0.51495,0.4586667 -0.96354,0.916 -1.35373,1.3906666 h -0.39152 c 0.17784,-0.4426666 0.3809,-0.8133333 0.56272,-1.1253333 0.20837,-0.3066666 0.52159,-0.7133333 0.95293,-1.2133333 z"
       style="fill:#1f1917;fill-opacity:1;fill-rule:evenodd;stroke:#1f1917;stroke-width:0.289612;stroke-linecap:butt;stroke-linejoin:miter;stroke-miterlimit:10;stroke-dasharray:none;stroke-opacity:1" />
    <path
       id="path27"
       d="m 365.501,-147.875 c 0.165,0.387 0.349,0.652 0.545,0.801 0.201,0.148 0.475,0.222 0.821,0.222 0.392,0 0.726,-0.144 1,-0.425 0.275,-0.289 0.412,-0.661 0.412,-1.11 0,-0.453 -0.133,-0.824 -0.404,-1.113 -0.263,-0.297 -0.561,-0.441 -0.883,-0.441 -0.247,0 -0.471,0.097 -0.683,0.273 -0.137,0.117 -0.325,0.379 -0.565,0.781 -0.157,-0.304 -0.325,-0.519 -0.514,-0.656 -0.184,-0.129 -0.416,-0.195 -0.679,-0.195 -0.353,0 -0.651,0.125 -0.898,0.375 -0.248,0.254 -0.369,0.574 -0.369,0.98 0,0.406 0.114,0.731 0.341,0.985 0.228,0.246 0.491,0.367 0.793,0.367 0.212,0 0.396,-0.051 0.561,-0.16 0.165,-0.11 0.338,-0.336 0.522,-0.684 z m 0.353,-0.746 c 0.185,-0.387 0.365,-0.645 0.542,-0.774 0.184,-0.128 0.384,-0.195 0.608,-0.195 0.302,0 0.553,0.11 0.757,0.324 0.204,0.215 0.303,0.508 0.303,0.879 0,0.356 -0.102,0.653 -0.318,0.895 -0.216,0.234 -0.456,0.351 -0.718,0.351 -0.169,0 -0.318,-0.043 -0.444,-0.125 -0.126,-0.086 -0.247,-0.222 -0.349,-0.422 -0.059,-0.105 -0.185,-0.417 -0.381,-0.933 z m -0.463,0.465 c -0.118,0.265 -0.255,0.465 -0.412,0.594 -0.157,0.132 -0.345,0.195 -0.573,0.195 -0.259,0 -0.479,-0.09 -0.651,-0.278 -0.177,-0.183 -0.263,-0.425 -0.263,-0.734 0,-0.328 0.086,-0.59 0.259,-0.785 0.172,-0.195 0.369,-0.289 0.584,-0.289 0.236,0 0.44,0.101 0.62,0.308 0.114,0.137 0.263,0.469 0.436,0.989 z"
       style="fill:#1f1917;fill-opacity:1;fill-rule:evenodd;stroke:#1f1917;stroke-width:0.217711;stroke-linecap:butt;stroke-linejoin:miter;stroke-miterlimit:10;stroke-dasharray:none;stroke-opacity:1"
       transform="scale(1.327188,-1.3333333)" />
    <path
       id="path28"
       d="m 358.213,-148.059 h -5.662 v 0.356 h 5.662 c -0.345,0.406 -0.592,0.715 -0.729,0.933 -0.15,0.223 -0.283,0.497 -0.413,0.821 h 0.295 c 0.29,-0.348 0.647,-0.715 1.075,-1.074 0.428,-0.364 0.765,-0.618 1.016,-0.762 v -0.207 c -0.325,-0.18 -0.686,-0.438 -1.071,-0.785 -0.388,-0.336 -0.726,-0.68 -1.02,-1.035 h -0.295 c 0.134,0.332 0.287,0.609 0.424,0.839 0.157,0.227 0.393,0.539 0.718,0.914 z"
       style="fill:#1f1917;fill-opacity:1;fill-rule:evenodd;stroke:#1f1917;stroke-width:0.217711;stroke-linecap:butt;stroke-linejoin:miter;stroke-miterlimit:10;stroke-dasharray:none;stroke-opacity:1"
       transform="scale(1.327188,-1.3333333)" />
    <path
       id="path29"
       d="m 365.501,-220.445 c 0.165,0.386 0.349,0.656 0.545,0.8 0.201,0.149 0.475,0.227 0.821,0.227 0.392,0 0.726,-0.148 1,-0.43 0.275,-0.289 0.412,-0.66 0.412,-1.109 0,-0.457 -0.133,-0.824 -0.404,-1.113 -0.263,-0.297 -0.561,-0.442 -0.883,-0.442 -0.247,0 -0.471,0.09 -0.683,0.274 -0.137,0.117 -0.325,0.379 -0.565,0.781 -0.157,-0.305 -0.325,-0.52 -0.514,-0.656 -0.184,-0.129 -0.416,-0.199 -0.679,-0.199 -0.353,0 -0.651,0.124 -0.898,0.378 -0.248,0.254 -0.369,0.575 -0.369,0.981 0,0.406 0.114,0.73 0.341,0.98 0.228,0.25 0.491,0.371 0.793,0.371 0.212,0 0.396,-0.05 0.561,-0.16 0.165,-0.109 0.338,-0.336 0.522,-0.683 z m 0.353,-0.746 c 0.185,-0.387 0.365,-0.645 0.542,-0.774 0.184,-0.129 0.384,-0.195 0.608,-0.195 0.302,0 0.553,0.109 0.757,0.324 0.204,0.215 0.303,0.504 0.303,0.879 0,0.355 -0.102,0.652 -0.318,0.895 -0.216,0.234 -0.456,0.355 -0.718,0.355 -0.169,0 -0.318,-0.043 -0.444,-0.125 -0.126,-0.09 -0.247,-0.227 -0.349,-0.426 -0.059,-0.105 -0.185,-0.418 -0.381,-0.933 z m -0.463,0.464 c -0.118,0.266 -0.255,0.465 -0.412,0.594 -0.157,0.133 -0.345,0.195 -0.573,0.195 -0.259,0 -0.479,-0.089 -0.651,-0.281 -0.177,-0.179 -0.263,-0.422 -0.263,-0.73 0,-0.332 0.086,-0.59 0.259,-0.785 0.172,-0.196 0.369,-0.289 0.584,-0.289 0.236,0 0.44,0.101 0.62,0.308 0.114,0.137 0.263,0.465 0.436,0.988 z"
       style="fill:#1f1917;fill-opacity:1;fill-rule:evenodd;stroke:#1f1917;stroke-width:0.217711;stroke-linecap:butt;stroke-linejoin:miter;stroke-miterlimit:10;stroke-dasharray:none;stroke-opacity:1"
       transform="scale(1.327188,-1.3333333)" />
    <path
       id="path30"
       d="m 358.213,-220.629 h -5.662 v 0.352 h 5.662 c -0.345,0.41 -0.592,0.718 -0.729,0.941 -0.15,0.215 -0.283,0.496 -0.413,0.82 h 0.295 c 0.29,-0.347 0.647,-0.718 1.075,-1.074 0.428,-0.363 0.765,-0.625 1.016,-0.765 v -0.207 c -0.325,-0.18 -0.686,-0.438 -1.071,-0.786 -0.388,-0.336 -0.726,-0.679 -1.02,-1.043 h -0.295 c 0.134,0.34 0.287,0.618 0.424,0.848 0.157,0.227 0.393,0.539 0.718,0.914 z"
       style="fill:#1f1917;fill-opacity:1;fill-rule:evenodd;stroke:#1f1917;stroke-width:0.217711;stroke-linecap:butt;stroke-linejoin:miter;stroke-miterlimit:10;stroke-dasharray:none;stroke-opacity:1"
       transform="scale(1.327188,-1.3333333)" />
    <text
       id="text30"
       xml:space="preserve"
       transform="matrix(1.3333333,0,0,1.339507,27.659915,81.323552)"><tspan
         style="font-variant:normal;font-weight:normal;font-size:10.0327px;font-family:'Liberation Serif';writing-mode:lr-tb;fill:#1f1917;fill-opacity:1;fill-rule:nonzero;stroke:none"
         sodipodi:role="line"
         id="tspan30"
         x="0"
         y="0">Potential probe (Normal device, pole-pole): AM &lt;&lt; MN </tspan></text>
    <path
       id="path31"
       d="m 190.832,52.473 h 16.164 v 0.457 h -16.164 z m 32.5,0 h 16.164 v 0.457 h -16.164"
       style="fill:#1f1917;fill-opacity:1;fill-rule:evenodd;stroke:none"
       transform="scale(1.3333333)" />
    <text
       id="text31"
       xml:space="preserve"
       transform="matrix(1.3333333,0,0,1.339507,31.659915,178.08371)"><tspan
         style="font-variant:normal;font-weight:normal;font-size:10.0327px;font-family:'Liberation Serif';writing-mode:lr-tb;fill:#1f1917;fill-opacity:1;fill-rule:nonzero;stroke:none"
         sodipodi:role="line"
         id="tspan31"
         x="0"
         y="0">Schlumberger (dipole-dipole): AB/3&gt; MN)</tspan></text>
    <path
       id="path32"
       d="m 185.051,125.043 h 13.933 v 0.457 h -13.933 z m 32.414,0 h 16.164 v 0.457 h -16.164"
       style="fill:#1f1917;fill-opacity:1;fill-rule:evenodd;stroke:none"
       transform="scale(1.3333333)" />
    <text
       id="text32"
       xml:space="preserve"
       transform="matrix(1.3333333,0,0,1.339507,36.315677,274.84391)"><tspan
         style="font-variant:normal;font-weight:normal;font-size:10.0327px;font-family:'Liberation Serif';writing-mode:lr-tb;fill:#1f1917;fill-opacity:1;fill-rule:nonzero;stroke:none"
         sodipodi:role="line"
         id="tspan32"
         x="0"
         y="0">Lateral probe (top-mounted, pole-dipole): AM &gt;&gt;MN</tspan></text>
    <path
       id="path33"
       d="m 208.25,197.609 h 16.168 v 0.461 H 208.25 Z m 32.504,0 h 16.164 v 0.461 h -16.164"
       style="fill:#1f1917;fill-opacity:1;fill-rule:evenodd;stroke:none"
       transform="scale(1.3333333)" />
    <text
       id="text33"
       xml:space="preserve"
       transform="matrix(1.3333333,0,0,1.339507,36.315677,371.60404)"><tspan
         style="font-variant:normal;font-weight:normal;font-size:10.0327px;font-family:'Liberation Serif';writing-mode:lr-tb;fill:#1f1917;fill-opacity:1;fill-rule:nonzero;stroke:none"
         sodipodi:role="line"
         id="tspan33"
         x="0"
         y="0">Lateral probe (bottom-mounted, pole-dipole): AM &gt;&gt;MN </tspan></text>
    <path
       id="path34"
       d="m 210.898,270.18 h 16.164 v 0.465 h -16.164 z m 32.5,0 h 16.168 v 0.465 h -16.168"
       style="fill:#1f1917;fill-opacity:1;fill-rule:evenodd;stroke:none"
       transform="scale(1.3333333)" />
    <path
       id="path35"
       d="M 150.977,31.336 V 10.277"
       style="fill:none;stroke:#000000;stroke-width:0.377969;stroke-linecap:butt;stroke-linejoin:miter;stroke-miterlimit:4;stroke-dasharray:1.13391, 1.13391;stroke-dashoffset:0;stroke-opacity:1"
       transform="scale(1.327188,1.3333333)" />
    <path
       id="path36"
       d="m 152.103,-256.109 h 134.68"
       style="fill:none;stroke:#1f1917;stroke-width:0.217711;stroke-linecap:butt;stroke-linejoin:miter;stroke-miterlimit:10;stroke-dasharray:none;stroke-opacity:1"
       transform="scale(1.327188,-1.3333333)" />
    <path
       id="path37"
       d="m 156.207,253.453 -4.805,2.656 4.805,2.657 v -5.313 l -4.805,2.656"
       style="fill:#1f1917;fill-opacity:1;fill-rule:evenodd;stroke:none"
       transform="scale(1.3333333)" />
    <path
       id="path38"
       d="m 280.656,253.453 4.805,2.656 -4.805,2.657 v -5.313 l 4.805,2.656"
       style="fill:#1f1917;fill-opacity:1;fill-rule:evenodd;stroke:none"
       transform="scale(1.3333333)" />
    <text
       id="text38"
       xml:space="preserve"
       transform="matrix(1.3333333,0,0,1.3395071,290.51001,354.4935)"><tspan
         style="font-variant:normal;font-weight:normal;font-size:10.0328px;font-family:'Liberation Serif';writing-mode:lr-tb;fill:#1f1917;fill-opacity:1;fill-rule:nonzero;stroke:none"
         x="0"
         y="0"
         id="tspan38">L</tspan></text>
    <path
       id="path39"
       d="M 16.455,-183.539 H 151.134"
       style="fill:none;stroke:#1f1917;stroke-width:0.217711;stroke-linecap:butt;stroke-linejoin:miter;stroke-miterlimit:10;stroke-dasharray:none;stroke-opacity:1"
       transform="scale(1.327188,-1.3333333)" />
    <path
       id="path40"
       d="m 21.184,180.883 -4.805,2.656 4.805,2.656 v -5.312 l -4.805,2.656"
       style="fill:#1f1917;fill-opacity:1;fill-rule:evenodd;stroke:none"
       transform="scale(1.3333333)" />
    <path
       id="path41"
       d="m 145.633,180.883 4.805,2.656 -4.805,2.656 v -5.312 l 4.805,2.656"
       style="fill:#1f1917;fill-opacity:1;fill-rule:evenodd;stroke:none"
       transform="scale(1.3333333)" />
    <text
       id="text41"
       xml:space="preserve"
       transform="matrix(1.3333333,0,0,1.3395071,110.47988,257.73333)"><tspan
         style="font-variant:normal;font-weight:normal;font-size:10.0328px;font-family:'Liberation Serif';writing-mode:lr-tb;fill:#1f1917;fill-opacity:1;fill-rule:nonzero;stroke:none"
         x="0"
         y="0"
         id="tspan41">L</tspan></text>
    <path
       id="path42"
       d="M 14.214,-110.969 H 148.901"
       style="fill:none;stroke:#1f1917;stroke-width:0.217711;stroke-linecap:butt;stroke-linejoin:miter;stroke-miterlimit:10;stroke-dasharray:none;stroke-opacity:1"
       transform="scale(1.327188,-1.3333333)" />
    <path
       id="path43"
       d="m 18.957,108.316 -4.809,2.653 4.809,2.652 v -5.305 l -4.809,2.653"
       style="fill:#1f1917;fill-opacity:1;fill-rule:evenodd;stroke:none"
       transform="scale(1.3333333)" />
    <path
       id="path44"
       d="m 143.406,108.316 4.809,2.653 -4.809,2.652 v -5.305 l 4.809,2.653"
       style="fill:#1f1917;fill-opacity:1;fill-rule:evenodd;stroke:none"
       transform="scale(1.3333333)" />
    <text
       id="text44"
       xml:space="preserve"
       transform="matrix(1.3333333,0,0,1.3395071,107.513,160.97317)"><tspan
         style="font-variant:normal;font-weight:normal;font-size:10.0328px;font-family:'Liberation Serif';writing-mode:lr-tb;fill:#1f1917;fill-opacity:1;fill-rule:nonzero;stroke:none"
         x="0"
         y="0"
         id="tspan44">L</tspan></text>
    <path
       id="path45"
       d="m 137.411,-38.398 h 27.874"
       style="fill:none;stroke:#1f1917;stroke-width:0.217711;stroke-linecap:butt;stroke-linejoin:miter;stroke-miterlimit:10;stroke-dasharray:none;stroke-opacity:1"
       transform="scale(1.327188,-1.3333333)" />
    <path
       id="path46"
       d="m 141.586,35.738 -4.809,2.66 4.809,2.653 v -5.313 l -4.809,2.66"
       style="fill:#1f1917;fill-opacity:1;fill-rule:evenodd;stroke:none"
       transform="scale(1.3333333)" />
    <path
       id="path47"
       d="m 159.719,35.738 4.804,2.66 -4.804,2.653 v -5.313 l 4.804,2.66"
       style="fill:#1f1917;fill-opacity:1;fill-rule:evenodd;stroke:none"
       transform="scale(1.3333333)" />
    <text
       id="text47"
       xml:space="preserve"
       transform="matrix(1.3333333,0,0,1.3395071,197.53269,63.542525)"><tspan
         style="font-variant:normal;font-weight:normal;font-size:10.0328px;font-family:'Liberation Serif';writing-mode:lr-tb;fill:#1f1917;fill-opacity:1;fill-rule:nonzero;stroke:none"
         x="0"
         y="0"
         id="tspan47">L</tspan></text>
    <path
       id="path48"
       d="M 150.977,103.91 V 82.855"
       style="fill:none;stroke:#000000;stroke-width:0.377969;stroke-linecap:butt;stroke-linejoin:miter;stroke-miterlimit:4;stroke-dasharray:1.13391, 1.13391;stroke-dashoffset:0;stroke-opacity:1"
       transform="scale(1.327188,1.3333333)" />
    <path
       id="path49"
       d="M 150.977,176.477 V 155.422"
       style="fill:none;stroke:#000000;stroke-width:0.377969;stroke-linecap:butt;stroke-linejoin:miter;stroke-miterlimit:4;stroke-dasharray:1.13391, 1.13391;stroke-dashoffset:0;stroke-opacity:1"
       transform="scale(1.327188,1.3333333)" />
    <path
       id="path50"
       d="M 150.977,249.047 V 227.996"
       style="fill:none;stroke:#000000;stroke-width:0.377969;stroke-linecap:butt;stroke-linejoin:miter;stroke-miterlimit:4;stroke-dasharray:1.13391, 1.13391;stroke-dashoffset:0;stroke-opacity:1"
       transform="scale(1.327188,1.3333333)" />
    <text
       id="text57"
       xml:space="preserve"
       transform="matrix(1.3333333,0,0,1.3395534,16.250276,81.584419)"><tspan
         style="font-variant:normal;font-weight:normal;font-size:10.0324px;font-family:'Liberation Serif';writing-mode:lr-tb;fill:#1f1917;fill-opacity:1;fill-rule:nonzero;stroke:none"
         x="0"
         y="0"
         id="tspan58">I</tspan><tspan
         style="font-variant:normal;font-weight:normal;font-size:10.0324px;font-family:'Liberation Serif';writing-mode:lr-tb;fill:#1f1917;fill-opacity:1;fill-rule:nonzero;stroke:none"
         x="0 3.3407893"
         y="72.097183"
         sodipodi:role="line"
         id="tspan59">II</tspan><tspan
         style="font-variant:normal;font-weight:normal;font-size:10.0324px;font-family:'Liberation Serif';writing-mode:lr-tb;fill:#1f1917;fill-opacity:1;fill-rule:nonzero;stroke:none"
         x="0 3.3407893"
         y="216.4725"
         sodipodi:role="line"
         id="tspan60">IV</tspan><tspan
         style="font-variant:normal;font-weight:normal;font-size:10.0324px;font-family:'Liberation Serif';writing-mode:lr-tb;fill:#1f1917;fill-opacity:1;fill-rule:nonzero;stroke:none"
         x="0 3.3407893 6.6815786"
         y="144.16458"
         sodipodi:role="line"
         id="tspan61">III</tspan></text>
    <g
       id="g89"
       transform="translate(0,18)">
      <text
         id="text73"
         xml:space="preserve"
         transform="scale(0.99769284,1.0023125)"
         x="176.26189"
         y="87.222702"
         style="font-size:16.037px;stroke-width:1.33642"><tspan
           style="font-variant:normal;font-weight:normal;font-size:13.4079px;font-family:'Liberation Serif';writing-mode:lr-tb;fill:#1f1917;fill-opacity:1;fill-rule:nonzero;stroke:none;stroke-width:1.33642"
           x="176.26189"
           y="87.222702"
           sodipodi:role="line"
           id="tspan73">M</tspan></text>
      <text
         id="text74"
         xml:space="preserve"
         transform="scale(0.99769284,1.0023125)"
         x="197.71169"
         y="87.222702"
         style="font-size:16.037px;stroke-width:1.33642"><tspan
           style="font-variant:normal;font-weight:normal;font-size:13.4079px;font-family:'Liberation Serif';writing-mode:lr-tb;fill:#1f1917;fill-opacity:1;fill-rule:nonzero;stroke:none;stroke-width:1.33642"
           x="197.71169"
           y="87.222702"
           sodipodi:role="line"
           id="tspan74">0</tspan></text>
      <text
         id="text75"
         xml:space="preserve"
         transform="scale(0.99769284,1.0023125)"
         x="216.35439"
         y="87.222702"
         style="font-size:16.037px;stroke-width:1.33642"><tspan
           style="font-variant:normal;font-weight:normal;font-size:13.4079px;font-family:'Liberation Serif';writing-mode:lr-tb;fill:#1f1917;fill-opacity:1;fill-rule:nonzero;stroke:none;stroke-width:1.33642"
           x="216.35439"
           y="87.222702"
           sodipodi:role="line"
           id="tspan75">N</tspan></text>
      <text
         id="text76"
         xml:space="preserve"
         transform="scale(0.99769284,1.0023125)"
         x="15.891891"
         y="87.222702"
         style="font-size:16.037px;stroke-width:1.33642"><tspan
           style="font-variant:normal;font-weight:normal;font-size:13.4079px;font-family:'Liberation Serif';writing-mode:lr-tb;fill:#1f1917;fill-opacity:1;fill-rule:nonzero;stroke:none;stroke-width:1.33642"
           x="15.891891"
           y="87.222702"
           sodipodi:role="line"
           id="tspan76">A</tspan></text>
      <text
         id="text77"
         xml:space="preserve"
         transform="scale(0.99769284,1.0023125)"
         x="376.72449"
         y="87.222702"
         style="font-size:16.037px;stroke-width:1.33642"><tspan
           style="font-variant:normal;font-weight:normal;font-size:13.4079px;font-family:'Liberation Serif';writing-mode:lr-tb;fill:#1f1917;fill-opacity:1;fill-rule:nonzero;stroke:none;stroke-width:1.33642"
           x="376.72449"
           y="87.222702"
           sodipodi:role="line"
           id="tspan77">B</tspan></text>
    </g>
    <g
       id="g88"
       transform="translate(0,22)">
      <text
         id="text69"
         xml:space="preserve"
         transform="scale(0.99769284,1.0023125)"
         x="176.26189"
         y="-12.546582"
         style="font-size:16.037px;stroke-width:1.33642"><tspan
           style="font-variant:normal;font-weight:normal;font-size:13.4079px;font-family:'Liberation Serif';writing-mode:lr-tb;fill:#1f1917;fill-opacity:1;fill-rule:nonzero;stroke:none;stroke-width:1.33642"
           x="176.26189"
           y="-12.546582"
           sodipodi:role="line"
           id="tspan69">A</tspan></text>
      <text
         id="text70"
         xml:space="preserve"
         transform="scale(0.99769284,1.0023125)"
         x="197.71169"
         y="-12.546582"
         style="font-size:16.037px;stroke-width:1.33642"><tspan
           style="font-variant:normal;font-weight:normal;font-size:13.4079px;font-family:'Liberation Serif';writing-mode:lr-tb;fill:#1f1917;fill-opacity:1;fill-rule:nonzero;stroke:none;stroke-width:1.33642"
           x="197.71169"
           y="-12.546582"
           sodipodi:role="line"
           id="tspan70">0</tspan></text>
      <text
         id="text71"
         xml:space="preserve"
         transform="scale(0.99769284,1.0023125)"
         x="216.35439"
         y="-12.546582"
         style="font-size:16.037px;stroke-width:1.33642"><tspan
           style="font-variant:normal;font-weight:normal;font-size:13.4079px;font-family:'Liberation Serif';writing-mode:lr-tb;fill:#1f1917;fill-opacity:1;fill-rule:nonzero;stroke:none;stroke-width:1.33642"
           x="216.35439"
           y="-12.546582"
           sodipodi:role="line"
           id="tspan71">M</tspan></text>
      <text
         id="text72"
         xml:space="preserve"
         transform="scale(0.99769284,1.0023125)"
         x="456.90955"
         y="-12.546582"
         style="font-size:16.037px;stroke-width:1.33642"><tspan
           style="font-variant:normal;font-weight:normal;font-size:13.4079px;font-family:'Liberation Serif';writing-mode:lr-tb;fill:#1f1917;fill-opacity:1;fill-rule:nonzero;stroke:none;stroke-width:1.33642"
           x="456.90955"
           y="-12.546582"
           sodipodi:role="line"
           id="tspan72">B</tspan></text>
      <text
         id="text78"
         xml:space="preserve"
         transform="scale(0.99769284,1.0023125)"
         x="376.72449"
         y="-12.546584"
         style="font-size:16.037px;stroke-width:1.33642"><tspan
           style="font-variant:normal;font-weight:normal;font-size:13.4079px;font-family:'Liberation Serif';writing-mode:lr-tb;fill:#1f1917;fill-opacity:1;fill-rule:nonzero;stroke:none;stroke-width:1.33642"
           x="376.72449"
           y="-12.546584"
           sodipodi:role="line"
           id="tspan78">N</tspan></text>
    </g>
    <g
       id="g90"
       transform="translate(0,14)">
      <text
         id="text79"
         xml:space="preserve"
         transform="scale(0.99769284,1.0023125)"
         x="176.26189"
         y="186.99199"
         style="font-size:16.037px;stroke-width:1.33642"><tspan
           style="font-variant:normal;font-weight:normal;font-size:13.4079px;font-family:'Liberation Serif';writing-mode:lr-tb;fill:#1f1917;fill-opacity:1;fill-rule:nonzero;stroke:none;stroke-width:1.33642"
           x="176.26189"
           y="186.99199"
           sodipodi:role="line"
           id="tspan79">M</tspan></text>
      <text
         id="text80"
         xml:space="preserve"
         transform="scale(0.99769284,1.0023125)"
         x="197.71169"
         y="186.99199"
         style="font-size:16.037px;stroke-width:1.33642"><tspan
           style="font-variant:normal;font-weight:normal;font-size:13.4079px;font-family:'Liberation Serif';writing-mode:lr-tb;fill:#1f1917;fill-opacity:1;fill-rule:nonzero;stroke:none;stroke-width:1.33642"
           x="197.71169"
           y="186.99199"
           sodipodi:role="line"
           id="tspan80">0</tspan></text>
      <text
         id="text81"
         xml:space="preserve"
         transform="scale(0.99769284,1.0023125)"
         x="216.35439"
         y="186.99199"
         style="font-size:16.037px;stroke-width:1.33642"><tspan
           style="font-variant:normal;font-weight:normal;font-size:13.4079px;font-family:'Liberation Serif';writing-mode:lr-tb;fill:#1f1917;fill-opacity:1;fill-rule:nonzero;stroke:none;stroke-width:1.33642"
           x="216.35439"
           y="186.99199"
           sodipodi:role="line"
           id="tspan81">N</tspan></text>
      <text
         id="text82"
         xml:space="preserve"
         transform="scale(0.99769284,1.0023125)"
         x="15.891891"
         y="186.99199"
         style="font-size:16.037px;stroke-width:1.33642"><tspan
           style="font-variant:normal;font-weight:normal;font-size:13.4079px;font-family:'Liberation Serif';writing-mode:lr-tb;fill:#1f1917;fill-opacity:1;fill-rule:nonzero;stroke:none;stroke-width:1.33642"
           x="15.891891"
           y="186.99199"
           sodipodi:role="line"
           id="tspan82">A</tspan></text>
      <text
         id="text83"
         xml:space="preserve"
         transform="scale(0.99769284,1.0023125)"
         x="456.90955"
         y="186.99199"
         style="font-size:16.037px;stroke-width:1.33642"><tspan
           style="font-variant:normal;font-weight:normal;font-size:13.4079px;font-family:'Liberation Serif';writing-mode:lr-tb;fill:#1f1917;fill-opacity:1;fill-rule:nonzero;stroke:none;stroke-width:1.33642"
           x="456.90955"
           y="186.99199"
           sodipodi:role="line"
           id="tspan83">B</tspan></text>
    </g>
    <g
       id="g91"
       transform="translate(0,10.300001)">
      <text
         id="text84"
         xml:space="preserve"
         transform="scale(0.99769284,1.0023125)"
         x="176.26189"
         y="286.76126"
         style="font-size:16.037px;stroke-width:1.33642"><tspan
           style="font-variant:normal;font-weight:normal;font-size:13.4079px;font-family:'Liberation Serif';writing-mode:lr-tb;fill:#1f1917;fill-opacity:1;fill-rule:nonzero;stroke:none;stroke-width:1.33642"
           x="176.26189"
           y="286.76126"
           sodipodi:role="line"
           id="tspan84">N</tspan></text>
      <text
         id="text85"
         xml:space="preserve"
         transform="scale(0.99769284,1.0023125)"
         x="197.71169"
         y="286.76126"
         style="font-size:16.037px;stroke-width:1.33642"><tspan
           style="font-variant:normal;font-weight:normal;font-size:13.4079px;font-family:'Liberation Serif';writing-mode:lr-tb;fill:#1f1917;fill-opacity:1;fill-rule:nonzero;stroke:none;stroke-width:1.33642"
           x="197.71169"
           y="286.76126"
           sodipodi:role="line"
           id="tspan85">0</tspan></text>
      <text
         id="text86"
         xml:space="preserve"
         transform="scale(0.99769284,1.0023125)"
         x="216.35439"
         y="286.76126"
         style="font-size:16.037px;stroke-width:1.33642"><tspan
           style="font-variant:normal;font-weight:normal;font-size:13.4079px;font-family:'Liberation Serif';writing-mode:lr-tb;fill:#1f1917;fill-opacity:1;fill-rule:nonzero;stroke:none;stroke-width:1.33642"
           x="216.35439"
           y="286.76126"
           sodipodi:role="line"
           id="tspan86">M</tspan></text>
      <text
         id="text87"
         xml:space="preserve"
         transform="scale(0.99769284,1.0023125)"
         x="456.90955"
         y="286.76126"
         style="font-size:16.037px;stroke-width:1.33642"><tspan
           style="font-variant:normal;font-weight:normal;font-size:13.4079px;font-family:'Liberation Serif';writing-mode:lr-tb;fill:#1f1917;fill-opacity:1;fill-rule:nonzero;stroke:none;stroke-width:1.33642"
           x="456.90955"
           y="286.76126"
           sodipodi:role="line"
           id="tspan87">B</tspan></text>
      <text
         id="text88"
         xml:space="preserve"
         transform="scale(0.99769284,1.0023125)"
         x="376.72449"
         y="286.76126"
         style="font-size:16.037px;stroke-width:1.33642"><tspan
           style="font-variant:normal;font-weight:normal;font-size:13.4079px;font-family:'Liberation Serif';writing-mode:lr-tb;fill:#1f1917;fill-opacity:1;fill-rule:nonzero;stroke:none;stroke-width:1.33642"
           x="376.72449"
           y="286.76126"
           sodipodi:role="line"
           id="tspan88">A</tspan></text>
    </g>
  </g>
</svg>
